#!OML:ASF F:\VICON\USERDATA\INSTALL\rory3\rory3.ASF
:FULLY-SPECIFIED
:DEGREES
2889
root -0.272404 15.5274 -1.01228 3.69784 40.5682 6.41074
lowerback 20.8837 2.23304 12.1649
upperback 3.60823 7.10652 12.3261
thorax -7.95443 3.41479 4.84465
lowerneck -11.8918 -0.745373 -3.95871
upperneck 1.91368 -0.727434 6.27772
head 2.79413 -0.150157 2.75238
rclavicle 4.53229e-014 9.85972e-014
rhumerus 21.8953 23.4925 -67.9825
rradius 63.7705
rwrist 21.677
rhand 25.8415 9.44047
rfingers 7.12502
rthumb 49.9326 -11.8176
lclavicle 4.53229e-014 9.85972e-014
lhumerus 24.3829 25.1034 38.1515
lradius 79.1936
lwrist 17.6685
lhand 10.5092 33.0533
lfingers 7.12502
lthumb 35.6091 59.4649
rfemur -11.8268 -18.1272 11.9155
rtibia 42.6041
rfoot -25.9343 -21.6616
rtoes -5.43008
lfemur -22.1482 -18.6903 -21.9381
ltibia 30.2681
lfoot 1.07912 -13.4886
ltoes 5.9762
2890
root -0.258224 15.5314 -0.998236 3.38518 40.5143 6.33672
lowerback 20.675 2.24649 12.4377
upperback 3.42523 7.18264 12.3988
thorax -8.0282 3.43992 4.76873
lowerneck -12.0824 -0.87217 -3.88999
upperneck 2.22191 -0.918284 6.31147
head 2.94695 -0.238283 2.74636
rclavicle 4.92986e-014 -4.13472e-014
rhumerus 21.5617 23.4427 -68.188
rradius 63.7097
rwrist 21.7798
rhand 25.9115 9.41886
rfingers 7.12502
rthumb 49.9967 -11.8056
lclavicle 4.92986e-014 -4.13472e-014
lhumerus 24.5936 25.1229 38.1645
lradius 79.2809
lwrist 17.6988
lhand 10.3112 33.1356
lfingers 7.12502
lthumb 35.4214 59.5922
rfemur -11.3226 -17.9582 11.8696
rtibia 42.3683
rfoot -26.0027 -21.6736
rtoes -4.96127
lfemur -21.6771 -18.5884 -22.028
ltibia 30.1508
lfoot 1.02328 -13.4668
ltoes 5.49091
2891
root -0.243668 15.535 -0.983493 3.15118 40.478 6.37689
lowerback 20.4185 2.23048 12.587
upperback 3.26786 7.17948 12.4771
thorax -8.06147 3.43389 4.78959
lowerneck -12.1924 -0.978679 -3.82125
upperneck 2.4372 -1.07653 6.27711
head 3.04977 -0.31453 2.71593
rclavicle -5.88403e-014 -9.54166e-015
rhumerus 21.3185 23.5543 -68.3919
rradius 63.6255
rwrist 21.9401
rhand 25.87 9.34137
rfingers 7.12502
rthumb 49.9587 -11.903
lclavicle -5.88403e-014 -9.54166e-015
lhumerus 24.6763 25.2573 38.1032
lradius 79.3597
lwrist 17.8588
lhand 10.0773 33.0221
lfingers 7.12502
lthumb 35.1997 59.5313
rfemur -10.804 -17.8379 11.7208
rtibia 42.1297
rfoot -26.0011 -21.7071
rtoes -4.87813
lfemur -21.2015 -18.5124 -22.2189
ltibia 29.9989
lfoot 0.890201 -13.4725
ltoes 4.69627
2892
root -0.228376 15.541 -0.965343 3.01966 40.439 6.51375
lowerback 20.0993 2.24631 12.6469
upperback 3.11626 7.1831 12.5549
thorax -8.06401 3.43548 4.85891
lowerneck -12.0942 -0.989131 -3.81717
upperneck 2.46498 -1.09265 6.2272
head 3.04053 -0.326116 2.6962
rclavicle 4.85035e-014 4.77083e-014
rhumerus 21.0493 23.612 -68.5711
rradius 63.5902
rwrist 22.0209
rhand 25.8338 9.29266
rfingers 7.12502
rthumb 49.9256 -11.9691
lclavicle 4.85035e-014 4.77083e-014
lhumerus 24.7876 25.4518 38.0963
lradius 79.4272
lwrist 17.9468
lhand 9.90995 32.9046
lfingers 7.12502
lthumb 35.0409 59.4511
rfemur -10.3224 -17.7219 11.5015
rtibia 41.8767
rfoot -25.9579 -21.7216
rtoes -5.05252
lfemur -20.7416 -18.4485 -22.4559
ltibia 29.8309
lfoot 0.825524 -13.4866
ltoes 4.58701
2893
root -0.212927 15.5447 -0.947921 2.8275 40.4257 6.61873
lowerback 19.8312 2.24905 12.7661
upperback 2.96592 7.1879 12.5991
thorax -8.0804 3.43355 4.85572
lowerneck -12.0521 -0.944965 -3.70029
upperneck 2.5347 -1.05045 6.13906
head 3.05071 -0.307602 2.64698
rclavicle -3.57812e-014 -8.90555e-014
rhumerus 20.7481 23.5594 -68.8405
rradius 63.579
rwrist 22.0889
rhand 25.9118 9.39596
rfingers 7.12502
rthumb 49.9969 -11.8284
lclavicle -3.57812e-014 -8.90555e-014
lhumerus 24.905 25.6415 37.9578
lradius 79.4961
lwrist 17.9713
lhand 9.94088 32.821
lfingers 7.12502
lthumb 35.0703 59.3606
rfemur -9.7897 -17.5973 11.2911
rtibia 41.6255
rfoot -26.0697 -21.6354
rtoes -4.75921
lfemur -20.2183 -18.4387 -22.6591
ltibia 29.6458
lfoot 0.869838 -13.4753
ltoes 5.38509
2894
root -0.197623 15.5495 -0.931855 2.55254 40.4351 6.58043
lowerback 19.5258 2.21528 12.9587
upperback 2.81246 7.15868 12.681
thorax -8.0767 3.41574 4.86679
lowerneck -12.0046 -0.865137 -3.57762
upperneck 2.67284 -0.964429 6.04184
head 3.08098 -0.267458 2.59744
rclavicle -2.14687e-014 1.27222e-014
rhumerus 20.4353 23.5853 -69.1487
rradius 63.5889
rwrist 22.0652
rhand 25.8788 9.36069
rfingers 7.12502
rthumb 49.9668 -11.8795
lclavicle -2.14687e-014 1.27222e-014
lhumerus 24.8784 25.8752 37.6873
lradius 79.5755
lwrist 18.007
lhand 9.99312 32.7992
lfingers 7.12502
lthumb 35.1198 59.3272
rfemur -9.27102 -17.4595 11.2154
rtibia 41.3767
rfoot -26.1785 -21.5997
rtoes -4.32989
lfemur -19.7293 -18.4006 -22.7457
ltibia 29.4549
lfoot 0.941488 -13.4788
ltoes 5.84718
2895
root -0.182722 15.5532 -0.916968 2.35704 40.435 6.60815
lowerback 19.1953 2.24612 13.1211
upperback 2.65665 7.19643 12.7353
thorax -8.06064 3.42976 4.84644
lowerneck -12.2875 -0.929119 -3.45248
upperneck 3.02284 -1.07673 6.01883
head 3.26072 -0.315835 2.56709
rclavicle 1.90833e-014 -1.33583e-013
rhumerus 20.111 23.4826 -69.434
rradius 63.5706
rwrist 21.9977
rhand 25.7546 9.28736
rfingers 7.12502
rthumb 49.8531 -12.0122
lclavicle 1.90833e-014 -1.33583e-013
lhumerus 25.0968 26.07 37.5962
lradius 79.5371
lwrist 17.9371
lhand 9.98714 32.8538
lfingers 7.12502
lthumb 35.1141 59.3831
rfemur -8.79385 -17.3198 11.1037
rtibia 41.1283
rfoot -26.2698 -21.6005
rtoes -3.96015
lfemur -19.3161 -18.3263 -22.8887
ltibia 29.3269
lfoot 0.956159 -13.5115
ltoes 5.94433
